<svg xmlns="http://www.w3.org/2000/svg" viewBox="0 0 24 24" fill="#2E6BFF">
  <path fill-rule="evenodd" d="M7.5 5.25a3 3 0 013-3h3a3 3 0 013 3v.205c6.763.592 10.5 3.076 10.5 6.425a.75.75 0 11-1.5 0c0-2.022-2.73-4.148-9-4.707V5.25a1.5 1.5 0 00-1.5-1.5h-3a1.5 1.5 0 00-1.5 1.5v1.923C5.23 7.732 2.5 9.858 2.5 11.88a.75.75 0 11-1.5 0c0-3.349 3.737-5.833 10.5-6.425V5.25z" clip-rule="evenodd" />
  <path d="M10.5 8.163v1.312c0 .828.672 1.5 1.5 1.5h.75c.828 0 1.5-.672 1.5-1.5V8.163c2.723.14 5.251.465 7.5 1.018v8.069a3 3 0 01-3 3h-12a3 3 0 01-3-3V9.18a38.468 38.468 0 017.5-1.017z" />
</svg>
